<?xml version="1.0" standalone="no"?>
<!DOCTYPE svg PUBLIC "-//W3C//DTD SVG 20010904//EN"
 "http://www.w3.org/TR/2001/REC-SVG-20010904/DTD/svg10.dtd">
<svg version="1.0" xmlns="http://www.w3.org/2000/svg"
 width="1064.000000pt" height="1064.000000pt" viewBox="0 0 1064.000000 1064.000000"
 preserveAspectRatio="xMidYMid meet">
<metadata>
Created by potrace 1.14, written by Peter Selinger 2001-2017
</metadata>
<g transform="translate(0.000000,1064.000000) scale(0.100000,-0.100000)"
fill="#000000" stroke="none">
<path d="M275 9281 c-3 -6 -12 -8 -19 -5 -16 6 -31 -12 -17 -21 6 -3 7 -13 4
-22 -8 -21 -8 -81 0 -89 3 -4 2 -14 -3 -23 -5 -10 -5 -23 -1 -30 5 -7 5 -30 1
-51 -4 -21 -4 -44 1 -51 4 -7 3 -21 -2 -30 -5 -10 -5 -20 -1 -23 5 -3 6 -26 2
-50 -4 -25 -3 -51 1 -58 4 -6 3 -20 -2 -29 -5 -10 -5 -20 -1 -23 5 -3 6 -28 2
-56 -4 -28 -3 -53 2 -56 4 -3 4 -13 -2 -23 -5 -10 -7 -21 -3 -24 7 -8 10 -97
3 -97 -7 0 -4 -89 3 -97 4 -3 2 -13 -3 -23 -5 -10 -7 -20 -3 -23 7 -8 10 -97
3 -97 -7 0 -4 -89 3 -97 4 -3 2 -13 -3 -22 -5 -10 -5 -23 -1 -30 5 -7 5 -30 1
-51 -4 -21 -4 -44 1 -51 4 -7 3 -21 -2 -30 -5 -10 -5 -20 -1 -23 5 -3 6 -26 2
-50 -4 -25 -3 -51 1 -58 4 -6 3 -20 -2 -29 -5 -10 -5 -20 -1 -23 5 -3 6 -28 2
-56 -4 -28 -3 -53 2 -56 4 -3 4 -13 -2 -23 -5 -10 -7 -21 -3 -24 7 -8 10 -97
3 -97 -7 0 -4 -89 3 -97 4 -3 2 -13 -3 -23 -5 -10 -7 -20 -3 -23 7 -8 10 -97
3 -97 -7 0 -4 -89 3 -97 4 -3 2 -13 -3 -22 -5 -10 -5 -23 -1 -30 5 -7 5 -30 1
-51 -4 -21 -4 -44 1 -51 4 -7 3 -21 -2 -30 -5 -10 -5 -20 -1 -23 5 -3 6 -26 2
-50 -4 -25 -3 -51 1 -58 4 -6 3 -20 -2 -29 -5 -10 -5 -20 -1 -23 5 -3 6 -28 2
-56 -4 -28 -3 -53 2 -56 4 -3 4 -13 -2 -23 -5 -10 -7 -21 -3 -24 7 -8 10 -97
3 -97 -7 0 -4 -89 3 -97 4 -3 2 -13 -3 -23 -5 -10 -7 -20 -3 -23 7 -8 10 -97
3 -97 -7 0 -4 -89 3 -97 4 -3 2 -13 -3 -22 -5 -10 -5 -23 -1 -30 5 -7 5 -30 1
-51 -4 -21 -4 -44 1 -51 4 -7 3 -21 -2 -30 -5 -10 -5 -20 -1 -23 5 -3 6 -26 2
-50 -4 -25 -3 -51 1 -58 4 -6 3 -20 -2 -29 -5 -10 -5 -20 -1 -23 5 -3 6 -28 2
-56 -4 -28 -3 -53 2 -56 4 -3 4 -13 -2 -23 -5 -10 -7 -21 -3 -24 7 -8 10 -97
3 -97 -7 0 -4 -89 3 -97 4 -3 2 -13 -3 -23 -5 -10 -7 -20 -3 -23 7 -8 10 -97
3 -97 -7 0 -4 -89 3 -97 4 -3 2 -13 -3 -22 -5 -10 -5 -23 -1 -30 5 -7 5 -30 1
-51 -4 -21 -4 -44 1 -51 4 -7 3 -21 -2 -30 -5 -10 -5 -20 -1 -23 5 -3 6 -26 2
-50 -4 -25 -3 -51 1 -58 4 -6 3 -20 -2 -29 -5 -10 -5 -20 -1 -23 5 -3 6 -28 2
-56 -4 -28 -3 -53 2 -56 4 -3 4 -13 -2 -23 -5 -10 -7 -21 -3 -24 7 -8 10 -97
3 -97 -7 0 -4 -89 3 -97 4 -3 2 -13 -3 -23 -5 -10 -7 -20 -3 -23 7 -8 10 -97
3 -97 -7 0 -4 -89 3 -97 4 -3 2 -13 -3 -22 -5 -10 -5 -23 -1 -30 5 -7 5 -30 1
-51 -4 -21 -4 -44 1 -51 4 -7 3 -21 -2 -30 -5 -10 -5 -20 -1 -23 5 -3 6 -26 2
-50 -4 -25 -3 -51 1 -58 4 -6 3 -20 -2 -29 -5 -10 -5 -20 -1 -23 5 -3 6 -28 2
-56 -4 -28 -3 -53 2 -56 4 -3 4 -13 -2 -23 -5 -10 -7 -21 -3 -24 7 -8 10 -97
3 -97 -7 0 -4 -89 3 -97 4 -3 2 -13 -3 -23 -5 -10 -7 -20 -3 -23 7 -8 10 -97
3 -97 -7 0 -4 -89 3 -97 4 -3 2 -13 -3 -22 -5 -10 -5 -23 -1 -30 5 -7 5 -30 1
-51 -4 -21 -4 -44 1 -51 4 -7 3 -21 -2 -30 -5 -10 -5 -20 -1 -23 5 -3 6 -26 2
-50 -4 -25 -3 -51 1 -58 4 -6 3 -20 -2 -29 -5 -10 -5 -20 -1 -23 5 -3 6 -28 2
-56 -4 -28 -3 -53 2 -56 4 -3 4 -13 -2 -23 -5 -10 -7 -21 -3 -24 7 -8 10 -97
3 -97 -7 0 -4 -89 3 -97 4 -3 2 -13 -3 -23 -5 -10 -7 -20 -3 -23 7 -8 10 -97
3 -97 -7 0 -4 -89 3 -97 4 -3 2 -13 -3 -22 -5 -10 -5 -23 -1 -30 5 -7 5 -30 1
-51 -4 -21 -4 -44 1 -51 4 -7 3 -21 -2 -30 -5 -10 -5 -20 -1 -23 5 -3 6 -26 2
-50 -4 -25 -3 -51 1 -58 4 -6 3 -20 -2 -29 -5 -10 -5 -20 -1 -23 5 -3 6 -28 2
-56 -4 -28 -3 -53 2 -56 4 -3 4 -13 -2 -23 -5 -10 -7 -21 -3 -24 7 -8 10 -97
3 -97 -7 0 -4 -89 3 -97 4 -3 2 -13 -3 -23 -5 -10 -7 -20 -3 -23 7 -8 10 -97
3 -97 -7 0 -4 -89 3 -97 4 -3 2 -14 -4 -24 -5 -11 -6 -19 -1 -19 5 0 6 -14 4
-32 -4 -26 -2 -30 11 -25 9 3 19 2 22 -4 4 -5 13 -6 22 0 9 5 29 5 45 1 16 -5
28 -5 28 0 0 6 10 6 25 0 15 -6 27 -6 30 0 3 5 15 6 28 1 12 -5 32 -5 45 0 12
5 22 5 22 -1 0 -5 12 -5 29 0 15 4 33 5 40 1 6 -4 34 -4 61 -1 28 4 50 3 50
-1 0 -4 14 -4 30 1 17 5 30 5 30 2 0 -9 69 -7 77 2 3 3 14 1 24 -4 12 -7 20
-7 24 0 4 6 13 7 24 1 9 -5 23 -6 30 -1 8 4 27 4 42 0 17 -5 29 -5 29 0 0 6
10 6 25 0 15 -6 27 -6 30 0 3 5 15 6 28 1 12 -5 32 -5 45 0 12 5 22 5 22 -1 0
-5 12 -5 29 0 15 4 34 4 40 0 7 -4 30 -4 52 0 22 4 42 4 45 -1 9 -16 30 2 33
29 1 15 4 36 5 47 1 11 -1 35 -5 53 -4 17 -3 34 1 37 5 3 5 18 1 33 -4 15 -6
36 -5 47 1 11 3 32 3 47 1 16 1 40 2 55 0 16 2 37 3 48 1 11 -1 35 -5 53 -4
17 -3 34 1 37 5 3 5 18 1 33 -4 15 -6 36 -5 47 4 32 7 88 5 115 -1 14 -1 32
-1 40 0 8 1 40 0 70 0 30 1 66 3 80 1 14 0 40 -4 58 -4 17 -3 34 1 37 5 3 5
18 1 33 -4 15 -6 36 -5 47 4 32 7 88 5 115 -1 14 -1 32 -1 40 0 8 1 40 0 70 0
30 1 66 3 80 1 14 0 40 -4 58 -4 17 -3 34 1 37 5 3 5 18 1 33 -4 15 -6 38 -4
52 4 36 7 253 4 300 -1 8 -1 33 0 55 1 22 1 47 0 55 0 8 0 56 0 105 1 50 0 97
0 105 -1 8 -1 33 0 55 1 22 1 47 0 55 0 8 0 56 0 105 1 50 0 97 0 105 -1 8 -1
33 0 55 1 22 1 47 0 55 0 8 0 56 0 105 1 50 0 96 0 103 -2 28 -2 39 -2 82 1
62 1 78 1 93 1 6 1 37 0 67 0 30 1 66 3 80 1 14 0 40 -4 58 -4 17 -3 32 1 32
4 0 4 16 0 35 -8 35 1 52 20 40 6 -3 10 -2 10 4 0 7 8 7 23 2 14 -5 30 -5 40
0 9 6 17 6 17 2 0 -4 78 -8 173 -9 267 -1 440 -14 579 -45 51 -12 99 -21 106
-22 6 0 12 -4 12 -9 0 -5 4 -7 8 -4 5 3 51 -16 102 -41 74 -36 108 -60 159
-113 86 -89 90 -94 128 -170 47 -97 94 -247 109 -352 3 -18 6 -42 8 -53 13
-75 23 -180 33 -320 12 -170 5 -1715 -7 -1715 -4 0 -6 -411 -1 -433 0 -4 10
-3 20 3 13 6 22 7 26 0 3 -6 15 -6 30 0 15 6 27 6 30 0 4 -7 13 -6 25 0 12 6
21 7 25 0 4 -6 15 -6 30 0 14 5 25 6 25 2 0 -7 116 -5 137 3 7 2 15 0 18 -5 3
-6 15 -6 30 0 15 6 27 6 30 0 3 -5 15 -6 28 -1 12 5 34 5 49 0 16 -4 28 -4 28
1 0 6 10 6 25 0 15 -6 27 -6 30 0 3 6 15 6 30 0 15 -6 27 -6 30 0 3 6 15 6 30
0 15 -6 27 -6 30 0 4 7 13 7 24 0 10 -5 21 -7 24 -4 7 7 87 11 87 4 0 -7 59
-5 66 3 3 3 16 2 28 -3 12 -4 29 -4 37 0 8 5 21 5 29 0 7 -4 23 -5 35 0 12 5
28 4 35 0 21 -13 53 8 47 31 -3 10 -2 19 1 19 8 0 6 169 -1 177 -3 3 -2 16 3
29 5 13 6 26 0 29 -5 3 -5 18 0 35 5 17 5 32 0 35 -6 3 -5 16 0 29 5 13 6 26
3 29 -7 7 -10 117 -3 117 3 0 4 37 2 82 -2 46 -2 97 -2 113 1 17 2 49 3 73 1
23 -1 42 -5 42 -4 0 -3 14 2 30 5 17 6 30 2 30 -4 0 -7 25 -7 55 0 30 2 55 5
55 7 0 3 170 -3 177 -3 3 -2 16 3 29 5 13 6 26 0 29 -5 3 -5 18 0 35 5 17 5
32 0 35 -6 3 -5 16 0 29 5 13 6 26 3 29 -8 8 -9 117 -2 117 4 0 3 16 -1 35 -4
19 -5 35 -1 35 4 0 4 25 1 55 -3 30 -2 55 3 55 4 0 5 4 2 10 -3 5 -8 148 -10
317 -2 170 -6 335 -9 368 -3 33 -8 102 -11 153 -4 52 -8 106 -10 120 -2 15 -7
54 -11 87 -3 33 -8 63 -10 67 -3 4 -7 26 -10 49 -4 23 -12 57 -20 75 -8 19
-12 34 -9 34 2 0 -4 20 -15 44 -10 24 -16 47 -13 50 4 3 1 6 -5 6 -7 0 -11 4
-9 8 3 10 -70 135 -95 161 -10 11 -18 23 -18 27 0 3 -43 48 -95 99 -52 51 -95
91 -95 87 0 -3 -8 3 -18 14 -39 40 -92 84 -102 84 -5 0 -10 4 -10 8 0 4 -38
39 -85 77 l-86 70 28 22 c15 12 36 29 46 38 9 8 17 13 17 10 0 -3 6 -1 13 5 6
6 44 33 82 62 39 28 100 81 137 118 63 64 145 176 140 193 -1 4 1 7 6 7 4 0
12 12 19 28 16 35 34 86 35 92 0 3 3 10 7 15 5 6 12 24 16 40 12 44 12 45 15
50 1 3 3 8 4 13 10 39 17 71 21 92 3 14 8 39 11 55 3 17 8 41 9 55 2 14 6 45
10 70 6 45 8 62 22 220 4 47 7 312 6 590 -2 863 -23 1254 -73 1385 -5 14 -7
25 -4 25 4 0 1 7 -6 15 -7 8 -10 15 -7 15 17 0 -104 221 -156 285 -4 6 -29 39
-55 75 -26 36 -53 71 -60 79 -7 8 -21 25 -30 39 -33 50 -142 166 -219 233 -91
79 -291 182 -396 204 -10 2 -27 7 -37 10 -93 30 -373 68 -507 69 -35 1 -63 3
-63 6 0 3 -33 6 -72 7 -40 1 -167 4 -283 8 -115 3 -214 5 -220 5 -5 0 -47 -1
-93 -2 -45 -2 -82 0 -82 4 0 4 -12 3 -26 -2 -18 -7 -23 -7 -18 2 5 7 3 8 -5 4
-17 -11 -111 -13 -117 -4 -3 5 -11 5 -17 1 -17 -10 -47 -11 -47 -2 0 5 -10 5
-22 1 -29 -9 -59 -9 -75 1 -6 4 -14 4 -17 -1 -5 -9 -47 -9 -63 1 -7 4 -14 4
-17 -1 -5 -9 -47 -9 -63 1 -7 4 -14 4 -17 -1 -6 -9 -47 -8 -64 2 -7 4 -12 2
-12 -4 0 -8 -6 -8 -20 0 -13 7 -20 7 -20 1 0 -7 -8 -7 -23 -2 -13 5 -30 5 -37
1 -8 -5 -21 -5 -30 0 -9 5 -22 5 -30 0 -7 -4 -24 -4 -37 1 -12 5 -23 5 -23 1
0 -4 -11 -7 -25 -7 -14 0 -25 3 -25 6 0 3 -23 3 -50 -1 -28 -4 -53 -3 -56 1
-3 5 -16 4 -29 -1 -14 -5 -25 -6 -25 -2 0 5 -23 6 -50 2 -28 -4 -53 -3 -56 2
-3 4 -14 4 -24 -2 -11 -6 -21 -6 -25 -1 -3 6 -17 6 -33 1 -16 -4 -36 -4 -45 1
-9 6 -18 5 -22 0z m1301 -961 c32 -1 109 -1 169 0 185 1 336 -8 423 -25 319
-62 510 -225 622 -530 36 -99 55 -192 77 -380 14 -123 7 -553 -13 -710 -2 -22
-7 -60 -9 -85 -12 -120 -28 -235 -40 -287 -13 -59 -15 -69 -19 -88 -8 -42 -28
-110 -36 -120 -4 -5 -13 -31 -21 -57 -7 -27 -17 -48 -21 -48 -4 0 -8 -6 -8
-13 0 -20 -74 -128 -120 -175 -88 -89 -207 -148 -355 -177 -105 -20 -331 -25
-500 -11 -122 10 -233 18 -275 19 -19 1 -39 8 -43 15 -5 8 -11 147 -12 310 -2
163 -6 437 -9 607 -7 350 -14 760 -22 1230 -3 176 -5 327 -5 335 1 8 1 26 0
40 0 14 -2 52 -2 85 l-2 60 68 1 c37 1 70 4 74 7 3 4 9 5 12 2 4 -2 34 -4 67
-5z"/>
<path d="M4889 9290 c-11 -37 -14 -144 -5 -159 4 -5 2 -12 -3 -15 -6 -4 -6
-18 -1 -35 4 -15 4 -34 0 -41 -4 -7 -4 -26 0 -41 5 -16 5 -31 0 -34 -5 -3 -5
-18 -1 -33 5 -15 5 -36 1 -47 -4 -11 -4 -32 1 -47 4 -15 4 -30 -1 -33 -5 -3
-5 -18 -1 -33 4 -15 5 -38 1 -52 -4 -14 -3 -37 1 -52 4 -15 4 -30 -1 -33 -5
-3 -5 -18 -2 -33 4 -15 6 -40 5 -57 -6 -60 -5 -124 2 -134 3 -6 1 -11 -5 -11
-6 0 -8 -5 -5 -11 4 -6 7 -33 6 -60 -1 -27 -1 -71 -2 -98 -1 -27 2 -54 5 -60
4 -5 2 -12 -3 -15 -6 -4 -6 -18 -1 -35 4 -15 4 -34 0 -41 -4 -7 -4 -26 0 -41
5 -16 5 -31 0 -34 -5 -3 -5 -18 -1 -33 5 -15 5 -36 1 -47 -4 -11 -4 -32 1 -47
4 -15 4 -30 -1 -33 -5 -3 -5 -18 -1 -33 4 -15 5 -38 1 -52 -4 -14 -3 -37 1
-52 4 -15 4 -30 -1 -33 -5 -3 -5 -18 -2 -33 4 -15 6 -40 5 -57 -6 -60 -5 -124
2 -134 3 -6 1 -11 -5 -11 -6 0 -8 -5 -5 -11 4 -6 7 -33 6 -60 -1 -27 -1 -71
-2 -98 -1 -27 2 -54 5 -60 4 -5 2 -12 -3 -15 -6 -4 -6 -18 -1 -35 4 -15 4 -34
0 -41 -4 -7 -4 -26 0 -41 5 -16 5 -31 0 -34 -5 -3 -5 -18 -1 -33 5 -15 5 -36
1 -47 -4 -11 -4 -32 1 -47 4 -15 4 -30 -1 -33 -5 -3 -5 -18 -1 -33 4 -15 5
-38 1 -52 -4 -14 -3 -37 1 -52 4 -15 4 -30 -1 -33 -5 -3 -5 -18 -2 -33 4 -15
6 -40 5 -57 -6 -60 -5 -124 2 -134 3 -6 1 -11 -5 -11 -6 0 -8 -5 -5 -11 7 -10
7 -29 4 -161 -1 -25 2 -51 5 -57 4 -5 2 -12 -3 -15 -6 -4 -6 -18 -1 -35 4 -15
4 -34 0 -41 -4 -7 -4 -26 0 -41 5 -16 5 -31 0 -34 -5 -3 -5 -18 -1 -33 5 -15
5 -36 1 -47 -4 -11 -4 -32 1 -47 4 -15 4 -30 -1 -33 -5 -3 -5 -18 -1 -33 4
-15 5 -38 1 -52 -4 -14 -3 -37 1 -52 4 -15 4 -30 -1 -33 -5 -3 -5 -18 -2 -33
4 -15 6 -40 5 -57 -6 -60 -5 -124 2 -134 3 -6 1 -11 -5 -11 -6 0 -8 -5 -5 -11
4 -6 7 -33 6 -60 -1 -27 -1 -71 -2 -98 -1 -27 2 -54 5 -60 4 -5 2 -12 -3 -15
-6 -4 -6 -18 -1 -35 4 -15 4 -34 0 -41 -4 -7 -4 -26 0 -41 5 -16 5 -31 0 -34
-5 -3 -5 -18 -1 -33 5 -15 5 -36 1 -47 -4 -11 -4 -32 1 -47 4 -15 4 -30 -1
-33 -5 -3 -5 -18 -1 -33 4 -15 5 -38 1 -52 -4 -14 -3 -37 1 -52 4 -15 4 -30
-1 -33 -5 -3 -5 -18 -2 -33 4 -15 6 -40 5 -57 -6 -60 -5 -124 2 -134 3 -6 1
-11 -5 -11 -6 0 -8 -5 -5 -11 4 -6 7 -33 6 -60 -1 -27 -1 -71 -2 -98 -1 -27 2
-54 5 -60 4 -5 2 -12 -3 -15 -6 -4 -6 -18 -1 -35 4 -15 4 -34 0 -41 -4 -7 -4
-26 0 -41 5 -16 5 -31 0 -34 -5 -3 -5 -18 -1 -33 5 -15 5 -36 1 -47 -4 -11 -4
-32 1 -47 4 -15 4 -30 -1 -33 -5 -3 -5 -18 -1 -33 4 -15 5 -38 1 -52 -4 -14
-3 -37 1 -52 4 -15 4 -30 -1 -33 -5 -3 -5 -18 -2 -33 4 -15 6 -40 5 -57 -6
-60 -5 -124 2 -134 3 -6 1 -11 -5 -11 -6 0 -8 -5 -5 -11 7 -10 7 -29 4 -161
-1 -25 2 -51 5 -57 4 -5 2 -12 -3 -15 -6 -4 -6 -18 -1 -35 4 -15 4 -34 0 -41
-4 -7 -4 -26 0 -41 5 -16 5 -31 0 -34 -5 -3 -5 -18 -1 -33 5 -15 5 -36 1 -47
-4 -11 -4 -32 1 -47 4 -15 4 -30 -1 -33 -5 -3 -5 -18 -1 -33 4 -15 5 -38 1
-52 -4 -14 -3 -37 1 -52 4 -15 4 -30 -1 -33 -5 -3 -5 -18 -2 -33 4 -15 6 -40
5 -57 -6 -60 -5 -124 2 -134 3 -6 1 -11 -5 -11 -6 0 -8 -5 -5 -11 7 -10 7 -29
4 -161 -1 -25 2 -51 5 -57 4 -5 2 -12 -3 -15 -6 -4 -6 -18 -1 -35 4 -15 4 -34
0 -41 -4 -7 -4 -26 0 -41 5 -16 5 -31 0 -34 -5 -3 -5 -18 -1 -33 5 -15 5 -36
1 -47 -4 -11 -4 -32 1 -47 4 -15 4 -30 -1 -33 -5 -3 -5 -18 -1 -33 4 -15 5
-38 1 -52 -4 -14 -3 -37 1 -52 4 -15 4 -30 -1 -33 -5 -3 -5 -18 -2 -33 4 -15
6 -40 5 -57 -6 -60 -5 -124 2 -134 3 -6 1 -11 -5 -11 -6 0 -8 -5 -5 -11 4 -6
7 -33 6 -60 -1 -27 -1 -71 -2 -98 -1 -27 2 -54 6 -60 3 -6 2 -11 -3 -11 -6 0
-7 -14 -2 -34 4 -19 6 -37 3 -39 -2 -3 8 -7 22 -9 14 -3 25 -2 25 3 0 4 14 4
30 -1 18 -5 30 -5 30 0 0 6 10 6 25 0 15 -6 26 -6 30 1 4 5 13 6 22 1 8 -5 33
-6 54 -2 22 4 42 4 45 -1 2 -4 16 -4 29 1 15 6 27 6 30 0 3 -5 15 -6 28 -1 12
5 34 5 49 0 16 -4 28 -4 28 1 0 6 10 6 25 0 15 -6 27 -6 30 0 3 6 15 6 30 0
15 -6 27 -6 30 0 3 6 15 6 30 0 15 -6 27 -6 30 0 4 7 13 7 24 0 10 -5 21 -7
24 -4 7 7 87 11 87 4 0 -7 59 -5 66 3 5 5 35 -3 54 -13 3 -2 14 2 26 8 11 6
26 7 34 2 7 -4 24 -4 37 1 12 5 23 5 23 1 0 -4 18 -7 40 -7 22 0 40 3 40 7 0
3 9 4 20 1 18 -5 19 0 19 48 -1 30 0 59 1 64 1 6 2 24 1 40 0 17 0 89 0 160 0
72 0 144 -1 160 -1 17 -2 35 -2 40 1 6 1 37 1 70 0 65 1 88 2 108 1 13 0 157
-1 302 -1 50 -1 97 -1 105 1 65 -1 302 -2 333 -1 20 0 37 3 37 3 0 4 21 3 47
-2 27 -3 77 -2 113 0 36 0 90 0 120 0 30 0 91 0 135 0 100 0 89 -1 160 -2 85
10 1255 15 1400 8 283 20 547 30 649 11 118 19 122 48 29 15 -46 29 -93 31
-105 6 -26 13 -58 22 -90 3 -13 7 -31 7 -40 1 -10 4 -18 7 -18 4 0 7 -6 7 -12
0 -7 8 -44 17 -82 10 -38 19 -77 21 -85 2 -9 15 -63 29 -121 23 -96 57 -243
76 -330 14 -61 41 -184 46 -205 3 -11 7 -31 10 -45 3 -14 7 -32 9 -40 3 -8 7
-33 11 -55 3 -22 8 -44 12 -49 3 -5 6 -19 8 -30 1 -12 12 -64 24 -116 11 -52
22 -104 25 -115 2 -11 18 -85 35 -165 37 -168 50 -226 56 -257 8 -44 13 -68
19 -93 3 -14 8 -38 11 -55 3 -16 12 -56 20 -87 8 -31 13 -61 12 -65 -1 -4 3
-26 10 -48 6 -22 13 -56 16 -75 3 -19 18 -84 32 -145 14 -60 25 -119 25 -130
0 -11 4 -31 9 -45 5 -14 11 -38 14 -55 2 -16 12 -64 21 -105 9 -41 18 -84 20
-95 2 -11 6 -32 9 -47 18 -82 88 -417 92 -438 4 -21 11 -56 20 -95 1 -5 14
-68 29 -140 27 -129 30 -145 41 -188 3 -12 7 -31 8 -42 3 -18 31 -154 41 -200
4 -18 11 -20 87 -18 102 3 281 10 453 18 72 3 198 7 280 10 267 9 378 14 382
18 2 3 5 13 7 23 2 11 9 39 16 64 7 25 13 54 15 66 1 11 4 25 8 30 3 5 8 28
11 50 4 23 11 56 17 75 6 19 12 45 15 59 3 14 10 43 16 65 5 22 12 48 14 57 2
10 6 26 8 36 2 9 9 35 14 57 6 22 13 51 16 65 3 14 12 52 20 86 8 34 17 72 20
85 3 13 12 51 21 84 14 57 20 81 31 132 2 12 9 34 14 48 5 14 7 25 5 25 -2 0
0 11 5 26 6 14 12 39 15 57 3 18 10 48 15 67 10 38 22 87 26 109 1 7 12 50 23
95 27 109 92 376 97 401 2 11 7 34 11 50 4 17 7 32 8 35 1 3 4 14 8 25 3 11 8
31 11 45 7 32 56 240 62 260 2 8 11 44 19 80 20 84 23 95 25 95 1 0 3 10 6 23
2 13 36 150 75 305 38 155 72 289 74 297 1 8 8 35 15 60 7 25 14 54 17 65 7
31 11 50 13 55 1 3 3 10 4 15 1 6 7 28 13 50 17 60 74 280 77 296 2 8 6 21 9
29 3 8 10 35 17 60 6 25 12 50 14 55 1 6 8 30 15 55 20 73 43 154 49 170 3 8
7 23 9 33 4 25 32 75 34 62 0 -5 2 -22 3 -36 2 -14 6 -32 11 -39 6 -9 4 -11
-5 -5 -9 6 -11 4 -5 -5 20 -32 32 -436 40 -1293 2 -318 6 -581 9 -585 2 -4 0
-16 -4 -27 -4 -11 -4 -32 1 -47 4 -16 3 -30 -2 -34 -5 -3 -7 -9 -4 -14 3 -5 5
-44 5 -87 0 -43 0 -87 0 -98 0 -11 0 -31 -1 -45 0 -14 0 -32 0 -40 1 -8 1 -26
0 -40 0 -14 0 -32 0 -40 1 -8 1 -26 0 -40 0 -14 0 -32 0 -40 1 -8 1 -26 0 -40
0 -14 0 -32 0 -40 1 -8 1 -26 0 -40 0 -14 0 -32 0 -40 1 -8 1 -26 0 -40 0 -14
0 -32 0 -40 2 -18 0 -58 -3 -85 -1 -11 1 -34 5 -51 3 -18 3 -38 -1 -45 -5 -7
-5 -22 0 -34 5 -12 5 -27 0 -34 -4 -7 -4 -28 0 -47 4 -19 4 -36 0 -39 -4 -3
-4 -20 0 -39 4 -19 4 -40 0 -47 -5 -7 -5 -22 0 -34 5 -12 5 -27 0 -34 -4 -7
-4 -28 0 -47 4 -19 4 -36 0 -39 -4 -3 -4 -21 0 -40 4 -19 4 -37 0 -40 -5 -3
-5 -18 -1 -33 4 -15 6 -36 5 -47 -1 -11 -3 -32 -3 -48 -1 -15 -1 -39 -2 -55 0
-15 0 -34 0 -42 1 -8 1 -26 0 -40 0 -14 0 -32 0 -40 1 -8 1 -26 0 -40 0 -14 0
-32 0 -40 1 -8 1 -26 0 -40 0 -14 0 -32 0 -40 1 -8 1 -26 0 -40 0 -14 0 -32 0
-40 1 -8 1 -26 0 -40 0 -14 0 -32 0 -40 2 -27 1 -59 -1 -71 -2 -6 5 -13 15
-14 11 -2 21 -6 24 -9 3 -3 13 -1 22 4 10 5 23 5 31 0 8 -5 21 -5 31 1 11 6
20 5 24 -1 4 -6 15 -6 30 0 14 5 25 6 25 2 0 -8 57 -8 66 1 3 3 17 2 30 -3 15
-6 34 -6 49 0 14 5 25 6 25 2 0 -9 124 -7 138 2 6 3 13 2 17 -3 3 -7 15 -7 30
-1 15 6 27 6 30 -1 4 -5 11 -7 16 -3 15 9 78 11 92 2 6 -3 18 -3 27 2 9 5 22
5 30 0 8 -5 21 -5 31 1 11 6 20 5 24 -1 3 -6 15 -6 30 0 15 6 27 6 30 0 3 -6
15 -6 30 0 14 5 25 6 25 2 0 -4 45 -7 101 -7 l101 0 -4 28 c-3 15 -2 27 1 27
3 0 6 16 6 35 0 19 -2 35 -5 35 -7 0 -4 66 4 79 4 5 2 12 -4 16 -6 4 -7 12 -1
24 5 9 6 23 2 29 -4 7 -4 35 -1 62 4 28 3 50 -1 50 -4 0 -4 14 1 30 5 17 6 30
2 30 -4 0 -6 17 -5 37 1 21 2 38 3 38 5 0 4 67 -1 70 -3 2 -2 29 1 59 3 31 3
56 -1 56 -4 0 -4 14 1 30 5 17 6 30 2 30 -4 0 -6 17 -5 37 1 21 2 38 3 38 5 0
4 67 -1 70 -3 2 -2 29 1 59 3 31 3 56 -1 56 -4 0 -4 14 1 30 5 17 6 30 2 30
-4 0 -6 17 -5 37 1 21 2 38 3 38 5 0 4 67 -1 70 -3 2 -2 29 1 59 3 31 3 56 -1
56 -4 0 -4 14 1 30 5 17 6 30 2 30 -4 0 -6 17 -5 37 1 21 2 38 3 38 5 0 4 67
-1 70 -3 2 -2 29 1 59 3 31 3 56 -1 56 -4 0 -4 14 1 30 5 17 6 30 2 30 -4 0
-6 17 -5 37 1 21 2 38 3 38 5 0 4 67 -1 70 -3 2 -2 29 1 59 3 31 3 56 -1 56
-4 0 -4 14 1 30 5 17 6 30 2 30 -4 0 -6 17 -5 37 1 21 2 38 3 38 5 0 4 67 -1
70 -3 2 -2 29 1 59 3 31 3 56 -1 56 -4 0 -4 14 1 30 5 17 6 30 2 30 -4 0 -6
17 -5 37 1 21 2 38 3 38 5 0 4 67 -1 70 -3 2 -2 29 1 59 3 31 3 56 -1 56 -4 0
-4 14 1 30 5 17 6 30 2 30 -4 0 -6 17 -5 37 1 21 2 38 3 38 5 0 4 67 -1 70 -3
2 -2 29 1 59 3 31 3 56 -1 56 -4 0 -4 14 1 30 5 17 6 30 2 30 -4 0 -6 17 -5
37 1 21 2 38 3 38 5 0 4 67 -1 70 -3 2 -2 29 1 59 3 31 3 56 -1 56 -4 0 -4 14
1 30 5 16 6 30 2 30 -4 0 -6 17 -5 37 1 21 2 38 3 38 5 0 4 67 -1 70 -3 2 -2
29 1 59 3 31 3 56 -1 56 -4 0 -4 14 1 30 5 17 6 30 2 30 -4 0 -6 17 -5 37 1
21 2 38 3 38 5 0 4 67 -1 70 -3 2 -2 29 1 59 3 31 3 56 -1 56 -4 0 -4 14 1 30
5 17 6 30 2 30 -4 0 -6 17 -5 37 1 21 2 38 3 38 5 0 4 67 -1 70 -3 2 -2 29 1
59 3 31 3 56 -1 56 -4 0 -4 14 1 30 5 17 6 30 2 30 -4 0 -6 17 -5 37 1 21 2
38 3 38 5 0 4 67 -1 70 -3 2 -2 29 1 59 3 31 3 56 -1 56 -4 0 -4 14 1 30 5 17
6 30 2 30 -4 0 -6 17 -5 37 1 21 2 38 3 38 5 0 4 67 -1 70 -3 2 -2 29 1 59 3
31 3 56 -1 56 -4 0 -4 14 1 30 5 17 6 30 2 30 -4 0 -6 17 -5 37 1 21 2 38 3
38 5 0 4 67 -1 70 -3 2 -2 29 1 59 3 31 3 56 -1 56 -4 0 -4 14 1 30 5 17 6 30
2 30 -4 0 -6 17 -5 37 1 21 2 38 3 38 5 0 4 67 -1 70 -3 2 -2 29 1 59 3 31 3
56 -1 56 -4 0 -4 14 1 30 5 17 6 30 2 30 -4 0 -6 17 -5 37 1 21 2 38 3 38 5 0
4 67 -1 70 -3 2 -2 29 1 59 3 31 3 56 -1 56 -4 0 -4 14 1 30 5 17 6 30 2 30
-4 0 -6 17 -5 37 1 21 2 38 3 38 5 0 4 67 -1 70 -3 2 -2 29 1 59 3 31 3 56 -1
56 -4 0 -4 14 1 30 5 17 6 30 2 30 -4 0 -6 17 -5 37 1 21 2 38 3 38 5 0 4 67
-1 70 -3 2 -2 29 1 59 3 31 3 56 -1 56 -4 0 -4 14 1 30 5 17 6 30 2 30 -4 0
-6 17 -5 37 1 21 2 38 3 38 5 0 4 67 -1 70 -3 2 -2 29 1 59 3 31 3 56 -1 56
-4 0 -4 14 1 30 5 17 6 30 2 30 -4 0 -6 17 -5 37 1 21 2 38 3 38 5 0 4 67 -1
70 -3 2 -2 29 1 59 3 31 3 56 -1 56 -4 0 -4 14 1 30 5 17 6 30 2 30 -4 0 -6
17 -5 37 1 21 2 38 3 38 5 0 4 67 -1 70 -3 2 -2 29 1 59 3 31 3 56 -1 56 -4 0
-4 14 1 30 5 17 6 30 2 30 -4 0 -6 17 -5 37 1 21 2 38 3 38 5 0 4 67 -1 70 -3
2 -2 29 1 59 3 31 3 56 -1 56 -4 0 -4 14 1 30 5 17 6 30 2 30 -9 0 -7 63 2 78
10 17 -30 53 -51 45 -17 -7 -46 -7 -110 0 -18 2 -33 0 -33 -5 0 -4 -10 -4 -23
1 -14 5 -30 5 -40 0 -9 -6 -17 -6 -17 -1 0 4 -25 5 -55 2 -30 -3 -55 -4 -55
-1 0 4 -11 6 -25 6 -14 0 -25 -4 -25 -8 0 -5 -4 -5 -10 -2 -13 8 -80 13 -80 6
0 -3 -21 -5 -47 -4 -27 1 -48 2 -48 3 0 1 -12 3 -27 4 -16 1 -28 -2 -28 -6 0
-4 -10 -4 -23 1 -14 5 -30 5 -40 0 -9 -6 -17 -6 -17 -1 0 4 -25 5 -55 2 -30
-3 -55 -4 -55 -1 0 4 -11 6 -25 6 -14 0 -25 -4 -25 -8 0 -5 -4 -5 -10 -2 -13
8 -80 13 -80 6 0 -3 -21 -5 -47 -4 -27 1 -48 2 -48 3 0 7 -36 6 -41 -1 -3 -5
-10 -7 -15 -3 -16 10 -109 8 -119 -2 -5 -5 -11 -21 -14 -34 -2 -14 -5 -25 -6
-25 -1 0 -3 -7 -5 -15 -1 -8 -12 -51 -24 -96 -12 -44 -24 -89 -26 -100 -2 -10
-4 -19 -5 -19 -2 0 -7 -19 -15 -57 -3 -15 -10 -39 -15 -53 -5 -14 -7 -25 -5
-25 2 0 0 -11 -5 -25 -5 -14 -12 -36 -14 -48 -10 -47 -15 -67 -41 -165 -15
-56 -28 -107 -29 -114 -1 -7 -5 -22 -9 -33 -3 -11 -8 -31 -11 -45 -3 -14 -14
-61 -26 -105 -12 -44 -23 -88 -26 -98 -2 -10 -6 -27 -9 -37 -3 -10 -8 -28 -10
-40 -2 -11 -13 -54 -24 -94 -11 -40 -22 -83 -25 -97 -2 -13 -7 -31 -10 -39 -3
-8 -8 -26 -10 -40 -3 -14 -10 -43 -16 -65 -10 -38 -13 -51 -24 -100 -3 -11 -9
-35 -15 -52 -5 -18 -8 -33 -6 -33 2 0 -5 -25 -15 -55 -10 -30 -17 -55 -15 -55
3 0 0 -11 -5 -25 -5 -14 -12 -36 -14 -48 -2 -12 -32 -132 -66 -267 -34 -135
-64 -253 -66 -262 -2 -10 -7 -28 -10 -40 -3 -13 -6 -29 -6 -35 -1 -7 -5 -13
-10 -13 -5 0 -7 -4 -4 -9 4 -5 2 -21 -4 -35 -5 -15 -12 -38 -15 -51 -3 -14 -7
-35 -10 -48 -3 -13 -14 -59 -26 -103 -25 -97 -33 -129 -53 -219 -9 -38 -20
-81 -26 -95 -5 -14 -12 -37 -14 -52 -3 -15 -7 -32 -10 -37 -4 -5 -8 -22 -10
-38 -3 -15 -12 -57 -21 -93 -9 -36 -18 -72 -20 -80 -2 -8 -4 -15 -5 -15 -3 0
-11 -39 -13 -62 -1 -13 -5 -23 -8 -23 -3 0 -6 -6 -6 -12 0 -7 -6 -33 -13 -58
-7 -25 -14 -53 -16 -62 -9 -42 -13 -58 -38 -153 -15 -55 -29 -108 -31 -117 -5
-18 -12 -44 -19 -75 -4 -18 -68 -264 -107 -413 -11 -41 -22 -82 -24 -90 -5
-17 -24 -88 -29 -110 -2 -8 -11 -42 -20 -75 -9 -33 -18 -67 -20 -75 -2 -8 -9
-35 -16 -60 -7 -25 -14 -52 -16 -60 -2 -8 -13 -49 -24 -90 -11 -41 -22 -82
-24 -90 -2 -8 -16 -58 -31 -110 -15 -52 -28 -102 -30 -110 -16 -73 -106 -360
-114 -360 -5 0 -61 135 -67 163 -1 4 -3 9 -4 12 -1 3 -3 8 -5 13 -1 4 -5 14
-8 22 -4 8 -8 24 -10 35 -2 11 -9 33 -16 49 -6 16 -13 38 -16 50 -2 11 -4 22
-6 24 -1 1 -2 5 -4 10 -1 4 -4 14 -8 22 -3 8 -13 42 -22 75 -9 33 -19 67 -22
75 -3 8 -7 20 -8 25 0 6 -4 17 -7 25 -3 8 -16 49 -28 90 -12 41 -26 89 -31
106 -5 17 -12 40 -14 50 -3 10 -14 51 -26 89 -11 39 -29 99 -39 135 -11 36
-28 97 -40 135 -12 39 -23 77 -24 85 -1 8 -8 35 -16 60 -7 25 -14 47 -15 50
-1 3 -5 19 -9 35 -4 17 -10 37 -13 45 -3 8 -7 22 -9 30 -3 16 -18 68 -40 139
-7 24 -11 47 -8 52 3 5 0 9 -5 9 -6 0 -11 7 -11 15 0 12 -83 321 -119 443 -5
17 -8 32 -5 32 3 0 0 9 -6 21 -6 11 -13 29 -16 40 -2 10 -6 29 -9 40 -2 12
-12 47 -21 78 -9 31 -18 64 -20 74 -4 23 -55 208 -62 227 -3 8 -5 18 -4 21 0
3 -6 28 -14 55 -18 56 -44 150 -49 177 -2 10 -7 27 -10 37 -3 10 -8 27 -10 37
-2 10 -12 45 -21 78 -9 33 -18 67 -19 75 -1 8 -5 22 -8 30 -7 19 -57 199 -62
225 -2 11 -13 54 -25 95 -12 41 -22 85 -23 98 0 12 -4 22 -7 22 -4 0 -7 6 -8
13 0 6 -14 64 -31 127 -39 143 -41 152 -46 170 -2 8 -4 15 -5 15 -1 0 -3 7 -5
15 -10 46 -65 253 -96 365 -11 39 -22 78 -24 89 -3 10 -12 44 -21 75 -9 31
-17 63 -19 71 -4 20 -48 184 -95 358 -22 78 -42 153 -44 165 -5 24 -69 257
-88 322 -7 22 -13 45 -14 50 -1 6 -5 25 -9 43 -8 34 -8 34 -61 30 -30 -1 -54
-1 -54 2 0 3 -11 5 -25 5 -14 0 -25 -4 -25 -8 0 -5 -4 -5 -10 -2 -13 8 -80 13
-80 6 0 -3 -21 -5 -47 -4 -27 1 -48 2 -48 3 0 1 -12 3 -27 4 -16 1 -28 -2 -28
-6 0 -4 -10 -4 -23 1 -14 5 -30 5 -40 0 -9 -6 -17 -6 -17 -1 0 4 -25 5 -55 2
-30 -3 -55 -4 -55 -1 0 4 -11 6 -25 6 -14 0 -25 -4 -25 -8 0 -5 -4 -5 -10 -2
-13 8 -80 13 -80 6 0 -3 -21 -5 -47 -4 -27 1 -48 2 -48 3 0 1 -12 3 -27 4 -16
1 -28 -2 -28 -6 0 -4 -10 -4 -23 1 -14 5 -30 5 -40 0 -10 -6 -17 -6 -17 -1 0
5 -20 6 -45 2 -25 -4 -48 -3 -51 1 -2 5 -16 4 -29 -1 -13 -5 -26 -6 -29 -1 -3
4 -28 5 -55 1 -30 -4 -55 -2 -61 4 -5 5 -11 8 -11 6z"/>
</g>
</svg>
