<?xml version="1.0" encoding="UTF-8" standalone="no"?>
<svg xmlns:rdf="http://www.w3.org/1999/02/22-rdf-syntax-ns#" xmlns="http://www.w3.org/2000/svg" height="81.382mm" width="325.4mm" version="1.1" xmlns:cc="http://creativecommons.org/ns#" xmlns:dc="http://purl.org/dc/elements/1.1/" viewBox="0 0 1153.0014 288.36256">
 <g transform="translate(659.5 71.967)">
  <g>
   <circle cx="-515.32" cy="72.214" r="144.18" fill="#69ab90"/>
   <circle cx="-515.13" cy="72.402" r="96.804" fill="#4a856d"/>
   <g fill="#575757">
    <path d="m-278.88 51.115c0 4.9562-0.18356 9.5452-1.8356 12.299-2.2027 3.8548-6.4247 4.4055-10.647 4.4055h-8.2603v-74.526h8.2603c4.2219 0 8.4439 0.55069 10.647 4.4055 1.6521 2.937 1.8356 7.526 1.8356 12.299v41.118zm22.578-36.162c0-6.0575 0-12.299-1.1014-17.806-1.2849-6.9754-4.2219-12.115-8.4438-15.97-8.6274-7.7096-23.496-7.3425-24.964-7.3425h-31.206v113.44h30.104c5.1397 0 10.096-0.18356 14.501-1.2849 4.2219-1.1014 8.0767-2.937 11.197-5.5069 4.2219-3.4877 7.3425-8.9945 8.811-16.521 1.1014-5.5069 1.1014-11.748 1.1014-17.622v-31.389z"/>
    <path d="m-222.65 38.265c0-3.8548 0.18357-8.4439 1.8356-11.564 1.4685-2.3863 3.6712-4.2219 7.526-4.2219 4.4055 0 6.7918 2.0192 8.0767 4.9562s1.2849 7.3425 1.2849 10.83h-18.723zm-20.375 13.767c0 12.666 2.0192 22.395 8.0767 28.636 4.7726 4.7726 11.564 7.526 22.395 7.526 4.4055 0.18356 9.5452-0.55069 13.767-1.8356 3.6712-0.91781 7.1589-2.3863 10.647-4.2219l-4.589-16.337c-4.0384 1.2849-7.8932 2.7534-11.932 3.4877-2.3863 0.55069-4.9562 0.73425-7.7096 0.73425-4.0384-0.18356-7.1589-1.8356-8.6274-4.589-1.4685-3.3041-1.6521-7.526-1.6521-11.014h37.08c0-6.4247 0.55069-14.685 0-22.762-0.55068-7.1589-2.3863-13.033-5.6904-17.622-4.589-6.0575-11.564-9.7288-21.66-9.7288-8.6274 0-15.419 2.7534-20.008 7.1589-7.7096 7.526-10.096 19.641-10.096 32.674v7.8932z"/>
    <path d="m-173.83 52.216c0 9.9123 0.91781 21.66 8.2603 28.636 6.0576 6.0575 14.501 7.3425 22.578 7.3425 7.1589 0 15.052-1.4685 21.11-4.7726l-3.6712-16.704c-3.8548 1.1014-5.874 1.8356-9.5452 2.3863-3.1206 0.55069-4.0384 0.73425-7.3425 0.73425-4.9562-0.18356-8.0767-2.3863-9.5452-5.5069-1.2849-2.3863-1.4685-5.5069-1.4685-9.1781v-17.622c0-4.4055 0.36712-8.4439 2.3863-11.197 1.4685-2.2027 3.8548-3.3041 7.7096-3.4877 5.5069-0.18356 12.115 1.4685 17.071 3.1206l3.4877-17.255c-2.3863-1.1014-6.6082-2.5699-10.096-3.3041-3.4877-0.73425-6.9754-1.1014-10.463-1.1014-9.3617 0.18356-18.54 2.5699-24.414 10.647-6.0576 8.2603-6.0576 19.274-6.0576 29.186v8.0767z"/>
    <path d="m-92.864 38.265c0-3.8548 0.18356-8.4439 1.8356-11.564 1.4685-2.3863 3.6712-4.2219 7.526-4.2219 4.4055 0 6.7918 2.0192 8.0767 4.9562s1.2849 7.3425 1.2849 10.83h-18.723zm-20.375 13.767c0 12.666 2.0192 22.395 8.0767 28.636 4.7726 4.7726 11.564 7.526 22.395 7.526 4.4055 0.18356 9.5452-0.55069 13.767-1.8356 3.6712-0.91781 7.1589-2.3863 10.647-4.2219l-4.5891-16.337c-4.0384 1.2849-7.8932 2.7534-11.932 3.4877-2.3863 0.55069-4.9562 0.73425-7.7096 0.73425-4.0384-0.18356-7.1589-1.8356-8.6274-4.589-1.4685-3.3041-1.6521-7.526-1.6521-11.014h37.08c0-6.4247 0.55069-14.685 0-22.762-0.55069-7.1589-2.3863-13.033-5.6904-17.622-4.5891-6.0575-11.564-9.7288-21.66-9.7288-8.6274 0-15.419 2.7534-20.008 7.1589-7.7096 7.526-10.096 19.641-10.096 32.674v7.8932z"/>
    <path d="m-21.65 87.276v-63.696c1.6521-0.55069 4.4055-0.91781 7.526-0.91781 4.5891 0 7.3425 1.4685 8.811 4.0384 2.2027 3.6712 1.8356 11.748 1.8356 16.704v43.871h20.375v-50.48c0-11.564-1.1014-19.825-6.7918-25.699-4.0382-4.2208-11.014-6.6071-20.559-6.7907-7.8932 0-18.723 1.1014-31.206 4.7726v78.197h20.008z"/>
    <path d="m36.393 54.602c0 9.3617-0.36712 21.293 6.6082 28.452 4.2219 4.4055 10.463 5.874 17.255 5.6904 5.6904 0 11.564-1.6521 16.704-4.4055l-4.222-16.703c-2.3863 0.91781-6.4247 2.7534-9.7288 2.5699-6.424-0.551-6.241-10.646-6.241-15.236v-31.022h16.153v-17.622h-16.153v-18.54h-20.375v18.54h-9.5452v17.622h9.5452v30.655z"/>
    <path d="m108.13 87.276v-63.329c2.2027-0.73425 4.4055-1.1014 6.4247-1.1014 1.4685 0 4.0384 0 6.4247 0.55069l2.57-18.355c-4.4-0.7347-8.44-0.9182-12.48-0.7347-7.71 0.1836-15.785 1.6521-22.944 4.5891v78.381h20.008z"/>
    <path d="m160.29 68.92c-2.937 1.2849-6.4247 2.5699-8.9945 1.2849-1.2849-0.73425-2.3863-2.2027-2.3863-4.7726v-1.2849c0-3.1206 1.1014-5.1397 2.5699-6.4247 1.652-1.4685 4.0384-2.2027 6.6082-3.1206l8.6274-2.7534v13.951l-6.4247 3.1206zm26.433-27.167c0-10.096-0.55068-20.559-5.874-27.901-2.2027-3.1206-5.5069-5.6904-9.9124-7.3425-4.2219-1.6521-8.9945-2.2027-13.767-2.2027-4.0384 0-8.6274 0.55069-13.033 1.4685-3.4877 0.73425-6.7918 1.6521-9.5452 2.937l3.6712 17.622c2.5699-0.73425 5.5069-1.6521 8.4438-2.2027 3.1206-0.73425 6.2411-0.91781 8.9945-0.91781 3.6712 0.18356 6.6082 1.1014 8.0767 2.7534 2.7534 2.937 2.937 6.6082 2.937 10.463l-18.356 4.9562c-6.2411 1.4685-11.197 4.2219-14.318 8.0767-3.1206 3.6712-4.7726 8.6274-4.7726 15.236v2.937c0 5.5069 1.2849 11.381 4.9562 15.419 2.7534 2.937 6.4247 4.5891 11.564 4.9562 4.0384 0.36712 8.0767-0.36712 11.748-1.8356 3.1206-1.2849 6.0576-2.937 9.1781-4.5891l0.36713 5.6904h19.641v-45.523z"/>
    <path d="m222.5-26.165h-20.008v113.44h20.008v-113.44z"/>
   </g>
   <g fill="#575757">
    <path d="m257.04 38.265c0-3.8548 0.18356-8.4439 1.8356-11.564 1.4685-2.3863 3.6712-4.2219 7.526-4.2219 4.4055 0 6.7918 2.0192 8.0767 4.9562s1.2849 7.3425 1.2849 10.83h-18.723zm-20.375 13.767c0 12.666 2.0192 22.395 8.0767 28.636 4.7726 4.7726 11.564 7.526 22.395 7.526 4.4055 0.18356 9.5452-0.55069 13.767-1.8356 3.6712-0.91781 7.1589-2.3863 10.647-4.2219l-4.589-16.337c-4.0384 1.2849-7.8932 2.7534-11.932 3.4877-2.3863 0.55069-4.9562 0.73425-7.7096 0.73425-4.0384-0.18356-7.1589-1.8356-8.6274-4.589-1.4685-3.3041-1.6521-7.526-1.6521-11.014h37.08c0-6.4247 0.55068-14.685 0-22.762-0.55069-7.1589-2.3863-13.033-5.6904-17.622-4.589-6.0575-11.564-9.7288-21.66-9.7288-8.6274 0-15.419 2.7534-20.008 7.1589-7.7096 7.526-10.096 19.641-10.096 32.674v7.8932z"/>
    <path d="m366.62 10.915v-5.5069h-20.008l-11.014 46.992-13.216-46.992h-20.559v4.5891l23.496 69.57c-1.6521 6.9754-6.4247 16.888-17.622 16.888l1.4685 17.622c3.6712 0.73425 7.7096 0.73425 11.197 0 16.521-3.4877 21.11-20.192 25.332-34.326l20.926-68.836z"/>
    <path d="m392.92 38.265c0-3.8548 0.18356-8.4439 1.8356-11.564 1.4685-2.3863 3.6712-4.2219 7.526-4.2219 4.4055 0 6.7918 2.0192 8.0767 4.9562s1.2849 7.3425 1.2849 10.83h-18.723zm-20.375 13.767c0 12.666 2.0192 22.395 8.0767 28.636 4.7726 4.7726 11.564 7.526 22.395 7.526 4.4055 0.18356 9.5452-0.55069 13.767-1.8356 3.6712-0.91781 7.1589-2.3863 10.647-4.2219l-4.589-16.337c-4.0384 1.2849-7.8932 2.7534-11.932 3.4877-2.3863 0.55069-4.9562 0.73425-7.7096 0.73425-4.0384-0.18356-7.1589-1.8356-8.6274-4.589-1.4685-3.3041-1.6521-7.526-1.6521-11.014h37.08c0-6.4247 0.55068-14.685 0-22.762-0.55069-7.1589-2.3863-13.033-5.6904-17.622-4.5891-6.0575-11.564-9.7288-21.66-9.7288-8.6274 0-15.419 2.7534-20.008 7.1589-7.7096 7.526-10.096 19.641-10.096 32.674v7.8932z"/>
    <path d="m493.5 63.597c0-9.9123-4.0384-16.521-12.666-20.559-4.2219-1.8356-8.9945-3.8548-12.666-5.5069-2.3863-1.1014-4.5891-2.3863-6.2411-4.2219-1.1014-1.4685-1.8356-3.1206-1.6521-5.3233 0.36712-4.2219 3.8548-6.2411 8.2603-6.2411 5.5069 0 10.83 1.6521 16.704 3.1206l3.4877-16.153c-2.937-1.2849-6.0575-2.2027-9.7288-3.1206-3.8548-0.73425-8.0767-1.2849-12.482-1.2849-5.6904 0-10.463 1.1014-14.318 3.1206-7.526 3.8548-11.197 11.381-11.564 19.641-0.36712 9.5452 3.4877 16.704 11.564 22.027 5.5069 3.4877 11.748 5.874 17.071 8.811 2.3863 1.4685 4.589 3.4877 4.2219 6.6082 0 4.2219-4.0384 6.4247-8.0767 6.4247-2.3863 0.18356-4.7726-0.18356-6.9754-0.55069-4.589-0.73425-8.6274-2.0192-13.216-3.1206l-3.4877 15.97c2.5699 1.2849 6.0576 2.3863 9.1781 3.3041 4.589 1.1014 8.6274 1.6521 13.951 1.6521 8.9945 0 16.521-2.2027 21.477-6.9754 4.4055-4.0384 6.9754-9.5452 7.1589-17.622z"/>
   </g>
   <g fill="#69ab90">
    <path d="m-293.2 165.42v-9.7633h-17.04v-47.159h-11.237v56.922h28.277z"/>
    <path d="m-274.84 156.95c-3.8685 0-4.5132-3.2237-4.5132-6.5396v-11.237c0-3.2238 0.82896-6.2633 4.5132-6.2633h0.55264c3.6843 0 4.5132 3.0395 4.5132 6.2633v11.237c0 3.3158-0.64475 6.5396-4.5132 6.5396h-0.55264zm-14.553-8.1975c0 4.1448 0.46053 8.658 2.9474 12.066 2.3027 3.2238 6.0791 5.0659 11.882 5.0659 5.8027 0 9.5791-1.9342 11.882-5.2501 2.4869-3.3158 2.9474-7.9212 2.9474-11.974v-7.8291c0-4.0527-0.46054-8.5659-2.9474-11.974-2.3027-3.3158-6.0791-5.0659-11.882-5.0659-5.8027 0-9.5791 1.9342-11.882 5.158-2.4869 3.408-2.9474 7.9212-2.9474 12.066v7.737z"/>
    <path d="m-253.77 147.83c0 4.9738 0.46053 10.869 4.1448 14.369 3.0395 3.0395 7.2764 3.6843 11.329 3.6843 3.5922 0 7.5528-0.73685 10.592-2.3948l-1.8421-8.3817c-1.9342 0.55264-2.9474 0.92107-4.7896 1.1974-1.5658 0.27632-2.0264 0.36843-3.6843 0.36843-2.4869-0.0921-4.0527-1.1974-4.7896-2.7632-0.64475-1.1974-0.73685-2.7632-0.73685-4.6054v-8.8423c0-2.2106 0.18421-4.2369 1.1974-5.6185 0.73685-1.1053 1.9342-1.6579 3.8685-1.75 2.7632-0.0921 6.0791 0.73685 8.566 1.5658l1.75-8.6581c-1.1974-0.55264-3.3158-1.2895-5.0659-1.6579-1.75-0.36843-3.5001-0.55264-5.2501-0.55264-4.6974 0.0921-9.3028 1.2895-12.25 5.3422-3.0395 4.1448-3.0395 9.6712-3.0395 14.645v4.0527z"/>
    <path d="m-208.45 156.21c-1.4737 0.64475-3.2237 1.2895-4.5132 0.64475-0.64475-0.36842-1.1974-1.1053-1.1974-2.3948v-0.64475c0-1.5658 0.55264-2.579 1.2895-3.2237 0.82896-0.73686 2.0264-1.1053 3.3158-1.5658l4.329-1.3816v7.0001l-3.2237 1.5658zm13.263-13.632c0-5.0659-0.27632-10.316-2.9474-14-1.1053-1.5658-2.7632-2.8553-4.9738-3.6843-2.1185-0.82896-4.5132-1.1053-6.908-1.1053-2.0264 0-4.329 0.27632-6.5396 0.73685-1.75 0.36843-3.408 0.82896-4.7896 1.4737l1.8421 8.8423c1.2895-0.36843 2.7632-0.82896 4.2369-1.1053 1.5658-0.36843 3.1316-0.46054 4.5132-0.46054 1.8421 0.0921 3.3158 0.55264 4.0527 1.3816 1.3816 1.4737 1.4737 3.3158 1.4737 5.2501l-9.2107 2.4869c-3.1316 0.73686-5.6185 2.1185-7.1843 4.0527-1.5658 1.8421-2.3948 4.329-2.3948 7.6449v1.4737c0 2.7632 0.64474 5.7106 2.4869 7.737 1.3816 1.4737 3.2238 2.3027 5.8027 2.4869 2.0264 0.18421 4.0527-0.18422 5.8948-0.92107 1.5658-0.64475 3.0395-1.4737 4.6053-2.3027l0.18422 2.8553h9.8554v-22.843z"/>
    <path d="m-177.23 108.5h-10.04v56.922h10.04v-56.922z"/>
    <path d="m-144.56 145.81c0 4.8817 0.27632 10.869 3.2238 14.737 1.4737 1.9342 3.5922 3.2237 5.8027 4.0527 2.7632 1.0132 5.7106 1.2895 8.566 1.2895 2.3948 0 4.7896-0.18421 7.3686-0.73685 1.8421-0.46054 3.5922-1.0132 5.2501-1.75l-1.9342-8.9344c-1.6579 0.46054-4.2369 1.1974-6.2633 1.4737-1.2895 0.18422-2.7632 0.36843-4.1448 0.27632-2.8553-0.18421-4.5132-1.1974-5.4343-2.7632-1.0132-1.75-1.1974-4.4211-1.1974-7.0922v-19.895c0-2.3948 0.18422-4.6975 1.0132-6.1712 1.0132-1.9342 3.1316-2.579 5.2501-2.579 1.3816 0 3.0395 0.27632 4.329 0.55264 1.8421 0.36843 3.7764 0.82896 5.5264 1.1974l2.0264-9.1186c-3.1316-1.3816-7.6449-2.3027-11.974-2.3027-5.0659 0-9.5791 1.2895-12.619 3.9606-2.1185 1.9342-3.5922 4.5132-4.329 8.0133-0.46054 2.7632-0.46054 5.8948-0.46054 8.9344v16.856z"/>
    <path d="m-87.193 147.28c0 2.4869-0.09211 4.7896-0.92107 6.1712-1.1053 1.9342-3.2237 2.2106-5.3422 2.2106h-4.1448v-37.395h4.1448c2.1185 0 4.2369 0.27632 5.3422 2.2106 0.82896 1.4737 0.92107 3.7764 0.92107 6.1712v20.632zm11.329-18.145c0-3.0395 0-6.1712-0.55264-8.9344-0.64475-3.5001-2.1185-6.079-4.2369-8.0133-4.329-3.8685-11.79-3.6843-12.527-3.6843h-15.658v56.922h15.106c2.579 0 5.0659-0.0921 7.2764-0.64475 2.1185-0.55264 4.0527-1.4737 5.6185-2.7632 2.1185-1.75 3.6843-4.5132 4.4211-8.2896 0.55264-2.7632 0.55264-5.8948 0.55264-8.8423v-15.75z"/>
    <path d="m-43.317 134.29c0 2.4869 0.09211 4.8817 0.27632 7.2764h-0.18421c-0.82896-2.3027-1.9342-4.9738-2.8553-6.8159l-12.619-26.25h-9.3028v56.922h10.684v-26.066c0-2.3948-0.09211-4.6974-0.27632-7.0922h0.18421c0.92107 2.8553 2.2106 5.8027 3.1316 7.6449l12.25 25.514h9.3028v-56.922h-10.592v25.79z"/>
    <path d="m0.35865 108.5v56.922h30.764v-9.7633h-19.527v-13.908h15.474v-9.7633h-15.474v-13.724h19.527v-9.7633h-30.764z"/>
    <path d="m47.637 165.42v-32.053c0.82896-0.27632 2.3027-0.55264 3.5001-0.46054 2.0264 0 3.1316 0.64475 3.6843 1.75 0.82896 1.6579 0.64475 4.1448 0.64475 6.3554v24.408h10.132v-23.948c0-2.2106 0-5.5264-0.46053-7.9212 0.92107-0.36842 2.4869-0.64475 3.6843-0.64475 2.2106 0 3.3158 0.64475 3.9606 1.75 0.73686 1.2895 0.73686 3.1316 0.73686 5.2501v25.514h10.224v-25.329c0-5.158-0.55264-9.1186-2.9474-11.974-2.4869-2.9474-6.1712-3.9606-9.9476-4.0527-2.6711 0-5.4343 0.46053-7.9212 1.2895-0.64475 0.18422-1.4737 0.55265-1.8421 0.82897-0.46054-0.36843-1.1053-0.73686-1.6579-0.92107-2.7632-1.1974-5.8948-1.5658-9.1186-1.5658-3.7764 0.0921-9.1186 1.1053-12.711 2.579v39.145h10.04z"/>
    <path d="m111.26 124.35v29.843l-3.5001 1.8421c-1.3816 0.64475-3.2237 1.2895-4.4211 0.64475-0.64475-0.36843-1.1974-1.1053-1.1974-2.3948v-29.935h-10.04v31.04c0 2.7632 0.46053 5.3422 1.75 7.1843 1.2895 1.9342 3.5001 3.1316 6.5396 3.3158 2.0264 0.18422 4.2369-0.27632 5.987-1.0132 1.8421-0.64475 3.5001-1.6579 5.158-2.4869l0.18421 3.0395h9.5791v-41.08h-10.04z"/>
    <path d="m139.56 108.5h-10.04v56.922h10.04v-56.922z"/>
    <path d="m161.6 156.21c-1.4737 0.64475-3.2237 1.2895-4.5132 0.64475-0.64475-0.36842-1.1974-1.1053-1.1974-2.3948v-0.64475c0-1.5658 0.55264-2.579 1.2895-3.2237 0.82896-0.73686 2.0264-1.1053 3.3158-1.5658l4.329-1.3816v7.0001l-3.2237 1.5658zm13.263-13.632c0-5.0659-0.27632-10.316-2.9474-14-1.1053-1.5658-2.7632-2.8553-4.9738-3.6843-2.1185-0.82896-4.5132-1.1053-6.908-1.1053-2.0264 0-4.329 0.27632-6.5396 0.73685-1.75 0.36843-3.408 0.82896-4.7896 1.4737l1.8421 8.8423c1.2895-0.36843 2.7632-0.82896 4.2369-1.1053 1.5658-0.36843 3.1316-0.46054 4.5132-0.46054 1.8421 0.0921 3.3158 0.55264 4.0527 1.3816 1.3816 1.4737 1.4737 3.3158 1.4737 5.2501l-9.2107 2.4869c-3.1316 0.73686-5.6185 2.1185-7.1843 4.0527-1.5658 1.8421-2.3948 4.329-2.3948 7.6449v1.4737c0 2.7632 0.64474 5.7106 2.4869 7.737 1.3816 1.4737 3.2238 2.3027 5.8027 2.4869 2.0264 0.18421 4.0527-0.18422 5.8948-0.92107 1.5658-0.64475 3.0395-1.4737 4.6053-2.3027l0.18422 2.8553h9.8554v-22.843z"/>
    <path d="m184.34 149.03c0 4.6975-0.18422 10.684 3.3158 14.277 2.1185 2.2106 5.2501 2.9474 8.658 2.8553 2.8553 0 5.8027-0.82897 8.3817-2.2106l-2.1185-8.3817c-1.1974 0.46053-3.2237 1.3816-4.8817 1.2895-3.2237-0.27632-3.1316-5.3422-3.1316-7.6449v-15.566h8.1054v-8.8423h-8.1054v-9.3028h-10.224v9.3028h-4.7896v8.8423h4.7896v15.382z"/>
    <path d="m220.98 108.5h-10.684v10.408h10.684v-10.408zm-0.36842 15.842h-9.9476v41.08h9.9476v-41.08z"/>
    <path d="m242.54 156.95c-3.8685 0-4.5132-3.2237-4.5132-6.5396v-11.237c0-3.2238 0.82897-6.2633 4.5132-6.2633h0.55264c3.6843 0 4.5132 3.0395 4.5132 6.2633v11.237c0 3.3158-0.64475 6.5396-4.5132 6.5396h-0.55264zm-14.553-8.1975c0 4.1448 0.46053 8.658 2.9474 12.066 2.3027 3.2238 6.0791 5.0659 11.882 5.0659 5.8027 0 9.5791-1.9342 11.882-5.2501 2.4869-3.3158 2.9474-7.9212 2.9474-11.974v-7.8291c0-4.0527-0.46054-8.5659-2.9474-11.974-2.3027-3.3158-6.0791-5.0659-11.882-5.0659-5.8027 0-9.5791 1.9342-11.882 5.158-2.4869 3.408-2.9474 7.9212-2.9474 12.066v7.737z"/>
    <path d="m274.85 165.42v-31.961c0.82896-0.27632 2.2106-0.46054 3.7764-0.46054 2.3027 0 3.6843 0.73686 4.4211 2.0264 1.1053 1.8421 0.92107 5.8948 0.92107 8.3817v22.014h10.224v-25.329c0-5.8027-0.55264-9.9476-3.408-12.895-2.0264-2.1185-5.5264-3.3158-10.316-3.408-3.9606 0-9.3949 0.55264-15.658 2.3948v39.238h10.04z"/>
   </g>
   <circle cx="-515.32" cy="72.214" r="85.491" fill="#d9ccb5"/>
   <path d="m-514.62-60.244c-35.857-0.21436-69.613 13.549-95.287 39.223-21.726 21.726-34.785 48.725-38.356 79.299-1.5095 12.924-1.1505 18.559 1.4496 22.765 2.5923 4.1928 7.7157 7.094 12.529 7.094 2.224 0 4.3673-0.59088 6.8602-1.8932 2.6102-1.3636 4.1843-2.796 5.6179-5.1148 1.79-2.8953 2.048-4.0575 2.5639-11.494 1.0787-15.547 3.6425-26.467 9.0225-38.438 5.5317-12.308 11.942-21.608 21.432-31.099 15.367-15.367 34.084-25.098 55.841-29.031 7.7155-1.3947 24.814-1.5398 33.687-0.28464 7.756 1.0971 10.134 0.7672 14.301-1.9925 5.8022-3.8431 8.1425-11.751 5.3024-17.917-3.0315-6.5811-7.1319-8.7184-19.484-10.163-5.1906-0.60718-10.356-0.9226-15.479-0.95322zm109.93 74.51c-8.1977-0.03762-14.914 6.5284-14.914 14.576 0 11.147 10.954 18.298 20.867 13.623 4.0006-1.8866 5.9627-3.8591 7.5023-7.5442 4.0457-9.6829-3.0709-20.608-13.456-20.655zm-14.971 113.33c-4.0751 0.0647-7.3332 2.0205-11.055 6.3482-9.1984 10.697-11.412 13.066-15.958 17.079-13.705 12.096-31.307 20.6-50.351 24.325-9.3447 1.8276-28.844 1.6379-38.299-0.3729-19.891-4.2303-35.81-12.389-51.031-26.152-7.8199-7.071-10.345-8.4952-15.06-8.4952-8.2275 0-14.524 6.3846-14.559 14.764-0.026 6.3329 1.7615 9.0449 11.94 18.107 19.95 17.762 46.738 29.723 73.456 32.798 7.3929 0.8508 22.091 0.86962 29.682 0.0398 24.156-2.6409 47.493-11.922 66.845-26.582 6.4568-4.8917 19.763-18.022 24.347-24.025 5.5848-7.3136 6.7915-11.417 5.1346-17.474-1.1034-4.0332-6.2363-8.7401-10.697-9.8103-1.5875-0.38083-3.0371-0.57098-4.3954-0.54943z" fill-rule="evenodd" fill="#e1eee9"/>
  </g>
  <g fill="#fff">
   <path d="m-398.82 91.611c-2.2815-0.10063-3.476 1.6445-4.709 6.2656-0.72585 2.3218-0.8127 3.4136-1.5879 5.7129l-1.1328 3.4004-2.2207-0.7832-2.2207-0.78125 0.48242 3.1484c1.2524 8.1662 2.7305 16.622 2.8926 16.553 1.7355-1.3997 8.0109-6.6523 15.238-12.561 0 0-1.199-0.43109-2.5371-0.91406l-2.3144-0.90039 1.2168-3.7168c0.66905-2.0444 1.5029-5.601 1.8535-7.9043 0.10026-0.65807 0.14896-1.1589 0.19727-1.6621 0.13779-3.332-0.88319-4.7139-3.3906-5.5059-0.6561-0.20727-1.2411-0.32834-1.7676-0.35157z"/>
   <path d="m-444.37-21.129c-1.5821 1.6469-3.6508 1.2077-7.7315-1.2869-2.1272-1.1799-2.9434-1.9104-5.0908-3.04l-3.166-1.68-1.0672 2.099-1.0686 2.0976-1.8229-2.612c-4.7273-6.7756-9.491-13.916-9.326-13.978 2.222-0.18409 10.389-0.7113 19.697-1.4206 0 0-0.57051 1.1392-1.206 2.4121l-1.0542 2.2486 3.4451 1.8511c1.8947 1.0183 4.9521 3.0176 6.795 4.4431 0.52659 0.4072 0.90738 0.73615 1.2895 1.0671 2.3985 2.3169 2.6128 4.0217 1.3441 6.3249-0.33194 0.60269-0.67188 1.0939-1.037 1.474z"/>
   <path d="m-432.68-16.955c-0.92625 0.11186-1.7636 0.61843-2.5957 1.4668-2.5338 2.583-1.7893 5.0501 3.1855 10.545 2.4906 2.751 6.0466 6.7358 7.9004 8.8555 3.7538 4.2926 5.5909 4.8261 8.1582 2.3672 2.8579-2.737 2.1581-5.0574-3.6914-12.246-6.6046-8.1165-10.178-11.324-12.957-10.988z"/>
   <path d="m-400.77 75.155c-0.1731-2.8106-0.55381-8.1371-0.84577-11.837-0.58317-7.3893 0.33368-9.7981 3.9172-10.296 4.7082-0.65411 6.1374 3.0921 6.5005 17.04 0.24112 9.2648-0.62148 11.529-4.5568 11.95-3.5346 0.37895-4.6643-1.1658-5.0151-6.8574z"/>
  </g>
  <path fill="#2a4c3d" d="m-453.01 64.994c-2.1109-0.01867-4.3622 1.2952-7.7031 4.248-10.175 8.9932-21.922 15.327-34.545 18.627-8.938 2.3365-24.56 2.9354-33.938 1.3027-14.797-2.576-26.79-8.3704-39.924-19.289-4.784-3.9773-6.1342-4.7617-8.1875-4.7617-3.5186 0-6.0234 2.6331-6.0234 6.332 0 2.525 0.38568 3.1373 4.3926 6.9707 2.416 2.3114 6.445 5.638 8.9551 7.3945 2.51 1.7566 4.8076 3.4001 5.1055 3.6523 0.2983 0.25226 0.17832 1.9504-0.26758 3.7715-1.4733 6.0171-4.278 10.442-7.6934 12.551-1.1265 0.76846-2.2641 1.2685-3.3203 1.3828-6.5363 0.70717-9.3955 4.3121-7.293 9.1953 1.6698 3.8781 6.6162 4.7935 12.031 2.9883 0.24651-0.0848 0.49286-0.16918 0.73829-0.26368 0.23829-0.0897 0.47741-0.18505 0.71679-0.28515 0.49332-0.20988 0.98411-0.43326 1.4707-0.68164 0.0508-0.0257 0.10153-0.0481 0.15234-0.0742 1.8138-0.94212 3.5716-2.1505 5.2266-3.5957 0.14038-0.12553 0.28085-0.25756 0.42188-0.39063 0.20456-0.18578 0.40438-0.38109 0.60547-0.57422 1.7137-1.7335 3.4328-3.9476 4.8926-6.2402 0.20605-0.3236 0.39292-0.64933 0.58789-0.97461 0.10747-0.18366 0.22362-0.36247 0.32813-0.54688 1.5252-2.6914 2.7177-5.4344 3.1113-7.4023 0.2326-1.1632 0.67161-2.1152 0.97461-2.1152 0.3031-0.00001 2.6227 0.7471 5.1543 1.6602 6.1439 2.2158 14.829 4.2505 20.553 4.8144l4.668 0.45899v11.014c0 10.802 0.033 11.054 1.7129 13.051 0.9421 1.1196 2.3872 2.1375 3.2109 2.2617 2.6996 0.407 4.527-0.26757 6.2363-2.2988 1.6414-1.9513 1.6836-2.265 1.6836-13.004v-11.004l4.8105-0.44727c6.0027-0.55789 16.571-3.1406 22.189-5.4238 2.3449-0.9528 4.4893-1.5925 4.7656-1.4219 0.2761 0.17065 0.68736 1.457 0.91406 2.8594 0.7511 4.6454 4.9402 12.24 8.8633 16.07 7.2261 7.0551 16.814 8.4874 19.682 2.9414 2.429-4.6972-0.15457-8.474-6.5898-9.6348-2.868-0.51734-6.1671-3.8642-8.0273-8.1445-1.5696-3.6119-2.9464-10.521-2.2266-11.172 0.3135-0.28323 2.5308-1.9235 4.9277-3.6445 6.261-4.4955 12.034-10.285 12.537-12.574 0.49754-2.2654-1.0289-5.7049-3-6.7598-0.99058-0.53012-1.9214-0.81378-2.8809-0.82227z"/>
 </g>
</svg>
