<svg width="172px" height="37px" viewBox="634 20 172 37" version="1.1" xmlns="http://www.w3.org/2000/svg" xmlns:xlink="http://www.w3.org/1999/xlink">
<defs>
<polygon id="path-1" points="23.515002 0.27770551 0.0615009823 0.27770551 0.0615009823 26.3252123 23.515002 26.3252123 23.515002 0.27770551"></polygon>
<polygon id="path-3" points="0 35.3568202 171.860778 35.3568202 171.860778 0.27770551 0 0.27770551"></polygon>
</defs>
<g id="logo" stroke="none" stroke-width="1" fill="none" fill-rule="evenodd" transform="translate(634.000000, 20.000000)">
<polygon id="Fill-1" fill="#F4F4F4" points="148.406973 34.9833767 152.328505 34.9833767 156.532199 25.5547769 160.282407 17.2212087 167.876089 34.9833767 171.860812 34.9833767 160.34526 8.93535501"></polygon>
<polygon id="Fill-2" fill="#F4F4F4" points="100.791763 10.469944 100.791763 31.5017597 107.885327 31.5017597 107.885327 34.978056 97.1510405 34.978056 97.1510405 10.469944"></polygon>
<polygon id="Fill-3" fill="#F4F4F4" points="127.140102 10.469944 127.140102 31.5017597 134.233666 31.5017597 134.233666 34.978056 123.499379 34.978056 123.499379 10.469944"></polygon>
<g id="Group-13" transform="translate(0.000000, 0.065565)">
<path d="M45.5462083,10.4043794 L45.5462083,26.2613984 C45.5462083,28.1559061 45.41611,29.5684625 45.1555756,30.4997543 C44.8953792,31.558056 44.4527073,32.4519313 43.8275599,33.1820668 C42.6086916,34.6320397 40.9937839,35.3566829 38.9838507,35.3566829 C37.4625462,35.3566829 36.0405894,34.9547136 34.7176424,34.1504318 L36.4991434,30.9916603 C37.3848251,31.5947859 38.212723,31.8965203 38.9838507,31.8965203 C40.0668762,31.8965203 40.817053,31.4787606 41.2337053,30.6425547 C41.6713084,29.806692 41.8899411,28.346421 41.8899411,26.2613984 L41.8899411,10.4043794 L45.5462083,10.4043794 Z" id="Fill-4" fill="#F4F4F4"></path>
<polygon id="Fill-6" fill="#F4F4F4" points="17.5941132 10.3738627 17.5941132 27.3925077 1.58054145 10.3738627 0.000101375246 10.3738627 0.000101375246 34.8661843 3.64048644 34.8661843 3.64048644 17.709888 19.8250444 34.8661843 21.2348361 34.8661843 21.2348361 10.3738627"></polygon>
<g id="Group-10" transform="translate(58.459725, 0.000000)">
<mask id="mask-2" fill="white">
<use xlink:href="#path-1"></use>
</mask>
<g id="Clip-9"></g>
<polygon id="Fill-8" fill="#19D6AC" mask="url(#mask-2)" points="3.9830334 26.3252123 0.0615009823 26.3252123 11.9994499 0.277533875 23.515002 26.3252123 19.5306169 26.3252123 11.9365972 8.56338753 8.186389 16.8966125"></polygon>
</g>
<mask id="mask-4" fill="white">
<use xlink:href="#path-3"></use>
</mask>
<g id="Clip-12"></g>
<polygon id="Fill-11" fill="#F4F4F4" mask="url(#mask-4)" points="68.4279528 34.9122855 72.0686758 34.9122855 72.0686758 24.1298284 68.4279528 24.1298284"></polygon>
</g>
</g>
</svg>
