<!DOCTYPE svg PUBLIC "-//W3C//DTD SVG 1.1//EN" "http://www.w3.org/Graphics/SVG/1.1/DTD/svg11.dtd">
<svg xmlns="http://www.w3.org/2000/svg" viewBox="0 0 133 111">
<path fill="#d86c2c" d="M3 55.5V105h14V64l4.25.056c13.326.177 15.332 3.465 14.96 24.523L35.92 105H50V87.45c0-19.304-.425-21.105-6.107-25.887l-3.179-2.674 2.156-1.511c5.099-3.571 6.301-8.396 5.952-23.898-.317-14.106-.367-14.38-3.364-18.64-5.486-7.798-8.532-8.805-26.708-8.824L3 6v49.5m58 0V105h14V78.3c0-14.685.379-26.272.843-25.75.463.523 3.275 12.553 6.25 26.734l5.407 25.785 7.482-.285 7.482-.284 6.068-25.216c3.337-13.869 6.382-25.532 6.768-25.917.385-.385.7 11.075.7 25.466V105h14V6h-15.923l-.971 3.75c-.534 2.063-4.434 17.475-8.668 34.25-4.234 16.775-8.008 30.847-8.388 31.27-.38.424-4.919-14.988-10.087-34.25L76.566 6H61v49.5M17.226 34.75 17.5 51.5l4 .329c9.52.784 12.824-1.822 13.935-10.985C37.422 24.447 34.06 18 23.521 18h-6.569l.274 16.75" fill-rule="evenodd"/>
</svg>